<?xml version="1.0" standalone="no"?>
<!DOCTYPE svg PUBLIC "-//W3C//DTD SVG 1.1//EN" "http://www.w3.org/Graphics/SVG/1.1/DTD/svg11.dtd" >
<svg xmlns="http://www.w3.org/2000/svg">
<metadata></metadata>
<defs>
<font id="avertalight" horiz-adv-x="1200" >
<font-face units-per-em="2048" ascent="1581" descent="-467" />
<missing-glyph horiz-adv-x="578" />
<glyph horiz-adv-x="0" />
<glyph horiz-adv-x="682" />
<glyph unicode=" "  horiz-adv-x="578" />
<glyph unicode="&#x09;" horiz-adv-x="578" />
<glyph unicode="&#xa0;" horiz-adv-x="578" />
<glyph unicode="!" horiz-adv-x="462" d="M189 400l-20 1108h132l-21 -1108h-91zM231 -10q-39 0 -65.5 25.5t-26.5 63.5q0 39 26.5 65t65.5 26q38 0 64.5 -26t26.5 -65q0 -37 -26.5 -63t-64.5 -26z" />
<glyph unicode="&#x22;" horiz-adv-x="615" d="M87 984l70 471h127l-99 -471h-98zM325 984l68 471h129l-98 -471h-99z" />
<glyph unicode="#" horiz-adv-x="1284" d="M282 -62l68 438h-257v89h270l54 354h-282v88h296l66 436h90l-67 -436h358l66 436h90l-67 -436h260v-88h-274l-53 -354h284v-89h-298l-66 -438h-89l67 438h-358l-68 -438h-90zM451 465h359l53 354h-357z" />
<glyph unicode="$" horiz-adv-x="1153" d="M1050 356q0 -155 -107 -253.5t-296 -106.5v-262h-94v264q-243 20 -424 196l74 86q86 -84 194.5 -130t218.5 -46q137 0 225.5 65.5t88.5 179.5q0 30 -6 56t-14.5 47t-25.5 40.5t-33 34t-42.5 29.5t-47.5 25.5t-55.5 23.5t-59.5 21.5t-65 21.5q-2 0 -5 2q-62 20 -93 30.5 t-84 32.5t-80.5 39.5t-64 46.5t-54 59.5t-30.5 72.5t-13 91q0 72 26 133.5t75 107.5t125 72.5t170 27.5v269h94v-276q91 -14 186 -52.5t163 -88.5l-71 -86q-76 56 -178 90.5t-184 34.5q-127 0 -206.5 -60t-79.5 -166q0 -39 11 -70.5t37.5 -57.5t50 -44t71.5 -37.5 t77.5 -30.5t90.5 -31q66 -21 100.5 -33.5t89 -35t83.5 -41.5t65 -49.5t53.5 -63.5t30.5 -78.5t13 -99.5z" />
<glyph unicode="%" horiz-adv-x="2023" d="M747 -27l-97 36l632 1461l96 -37zM505 666q-111 0 -203 49.5t-147 141.5t-55 210q0 110 50 200.5t143 144t212 53.5q112 0 204 -49t147 -140.5t55 -208.5q0 -110 -50 -201.5t-143.5 -145.5t-212.5 -54zM506 765q133 0 216 86.5t83 214.5q0 133 -85.5 216.5t-213.5 83.5 q-133 0 -216.5 -86t-83.5 -214q0 -133 86.5 -217t213.5 -84zM1508 -10q-111 0 -203 49.5t-147 141.5t-55 209q0 110 50 200.5t143 144t212 53.5q112 0 204 -49t147 -140.5t55 -208.5q0 -110 -50 -201t-143.5 -145t-212.5 -54zM1509 89q133 0 216 86.5t83 213.5 q0 133 -85.5 216.5t-213.5 83.5q-133 0 -216.5 -86t-83.5 -214q0 -132 87 -216t213 -84z" />
<glyph unicode="&#x26;" horiz-adv-x="1334" d="M1129 0l-137 158h-3q-157 -168 -418 -168q-127 0 -230 51t-163.5 147t-60.5 220q0 132 78 249t206 183l-187 215q6 185 120 297.5t293 112.5q79 0 148.5 -22t119.5 -60t85 -82t56 -94l-100 -45q-38 85 -111 138t-186 54q-140 1 -220 -74.5t-84 -196.5l652 -756h3 q45 74 68 161.5t23 172.5l113 1q0 -111 -31 -222.5t-96 -201.5v-4l203 -235zM235 413q0 -135 95.5 -223t249.5 -88q206 0 339 135l1 4l-447 515q-106 -50 -172 -144.5t-66 -198.5z" />
<glyph unicode="'" horiz-adv-x="377" d="M87 984l70 471h127l-99 -471h-98z" />
<glyph unicode="(" horiz-adv-x="550" d="M354 -293q-219 421 -219 902q0 253 61 486.5t169 414.5l87 -44q-98 -179 -153.5 -399.5t-55.5 -457.5q0 -241 53 -451t150 -410z" />
<glyph unicode=")" horiz-adv-x="587" d="M233 -293l-92 41q97 200 150 410t53 451q0 237 -55.5 457.5t-153.5 399.5l87 44q108 -181 169 -414.5t61 -486.5q0 -481 -219 -902z" />
<glyph unicode="*" horiz-adv-x="845" d="M382 816l7 261l-222 -138l-41 74l230 121l-232 124l43 73l222 -137l-7 261h82l-8 -261l222 137l41 -73l-231 -123l232 -122l-42 -72l-222 136l8 -261h-82z" />
<glyph unicode="+" horiz-adv-x="1195" d="M543 91v420h-422v110h422v422h109v-422h421v-110h-421v-420h-109z" />
<glyph unicode="," horiz-adv-x="406" d="M73 -265l70 471h128l-114 -471h-84z" />
<glyph unicode="-" horiz-adv-x="850" d="M125 578v110h600v-110h-600z" />
<glyph unicode="." horiz-adv-x="460" d="M230 -10q-39 0 -65.5 25.5t-26.5 63.5q0 39 26.5 65t65.5 26q38 0 64.5 -26t26.5 -65q0 -37 -26.5 -63t-64.5 -26z" />
<glyph unicode="/" horiz-adv-x="820" d="M44 -232l-95 45l792 1745l94 -47z" />
<glyph unicode="0" horiz-adv-x="1275" d="M637 -10q-111 0 -205 47t-163.5 135t-108.5 224.5t-39 305.5q0 154 34.5 284.5t99 226t162.5 149.5t220 54q111 0 205 -46.5t164 -135t109 -225t39 -307.5q0 -153 -34.5 -282.5t-98.5 -225.5t-162.5 -150t-221.5 -54zM639 96q128 0 219.5 77.5t137 213t45.5 315.5 q0 147 -30 264t-84.5 191.5t-127.5 113.5t-160 39q-128 0 -220 -77t-138.5 -213.5t-46.5 -317.5q0 -146 30.5 -262t85 -190.5t128 -114t161.5 -39.5z" />
<glyph unicode="1" horiz-adv-x="720" d="M414 0v1271l-307 -231l-56 84l377 282h94v-1406h-108z" />
<glyph unicode="2" horiz-adv-x="1039" d="M260 104h683v-104h-866l-1 83l505 507q54 55 89 96t70.5 93.5t53 106.5t17.5 110q0 136 -86.5 225t-222.5 89q-113 0 -198 -55.5t-135 -161.5l-87 56q60 125 166.5 196t258.5 71q82 0 157 -28.5t133 -79.5t92.5 -130t34.5 -173q0 -119 -58.5 -231.5t-185.5 -240.5 l-420 -423v-6z" />
<glyph unicode="3" horiz-adv-x="1071" d="M718 732q116 -43 182.5 -138t66.5 -221q0 -111 -58 -199t-159.5 -136t-226.5 -48q-171 0 -292.5 69.5t-175.5 192.5l98 43q44 -93 136.5 -146t228.5 -53q94 0 170 36t121 104t45 156q0 59 -22.5 110.5t-65 92t-110.5 64t-154 23.5h-126v104h146q76 0 134.5 21t93.5 57 t53 81.5t18 97.5q0 120 -88.5 193.5t-223.5 73.5q-206 0 -316 -149l-92 48q60 96 163 151.5t246 55.5q119 0 213.5 -42t151.5 -125.5t57 -195.5q0 -108 -55.5 -192t-158.5 -125v-4z" />
<glyph unicode="4" horiz-adv-x="1138" d="M746 0v258h-687v93l699 1055h96v-1044h220v-104h-220v-258h-108zM197 362h549v830z" />
<glyph unicode="5" horiz-adv-x="1120" d="M560 886q96 0 180 -30t147.5 -86t100 -141.5t36.5 -190.5q0 -130 -64.5 -233t-174.5 -159t-243 -56q-146 0 -268.5 65.5t-187.5 176.5l87 61q52 -90 148 -143.5t215 -53.5q103 0 189 44.5t136 123t50 175.5q0 80 -30 145.5t-81 108t-118.5 65.5t-144.5 23 q-179 0 -270 -81l-72 12l39 694h729v-103h-627l-25 -469q107 52 249 52z" />
<glyph unicode="6" horiz-adv-x="1182" d="M640 878q197 0 318.5 -119t121.5 -322q0 -93 -35.5 -175.5t-97.5 -142t-151 -94.5t-192 -35t-193 39t-155 108t-102 169t-37 218q0 155 41 295t110 246t159 188.5t188.5 132.5t199.5 68l35 -95q-100 -24 -194 -76.5t-178.5 -133t-146 -197t-86.5 -254.5l2 -1 q68 84 170.5 132.5t222.5 48.5zM603 97q81 0 149.5 27t115.5 73.5t73 109t26 131.5q0 152 -94.5 243t-252.5 91q-71 0 -134.5 -21t-112 -57.5t-84.5 -80t-60 -93.5v-3q0 -187 105.5 -303.5t268.5 -116.5z" />
<glyph unicode="7" horiz-adv-x="1007" d="M64 1406h867v-84l-595 -1343l-116 25l583 1298h-739v104z" />
<glyph unicode="8" horiz-adv-x="1174" d="M793 760q124 -35 201 -135t77 -239q0 -117 -65.5 -207.5t-176.5 -139t-246 -48.5q-106 0 -197 31t-154 84t-98.5 125.5t-35.5 154.5q0 139 76.5 239t200.5 135v3q-38 12 -74.5 38.5t-67 64t-49 90t-18.5 109.5q0 106 54.5 186.5t149 122.5t213.5 42q190 0 305.5 -98.5 t115.5 -252.5q0 -57 -18.5 -109t-49.5 -90t-67.5 -64t-75.5 -38v-4zM278 1057q0 -111 87 -178.5t219 -67.5q133 0 220.5 67t87.5 179q0 113 -86.5 183.5t-221.5 70.5q-137 0 -221.5 -73t-84.5 -181zM583 97q84 0 155 24t118.5 65t74 95t26.5 115q0 138 -105 223.5t-269 85.5 q-163 0 -267.5 -85.5t-104.5 -223.5q0 -87 49.5 -155.5t134 -106t188.5 -37.5z" />
<glyph unicode="9" horiz-adv-x="1186" d="M584 1416q102 0 191.5 -39t154.5 -109t102.5 -174t37.5 -227q-1 -130 -32.5 -249.5t-85.5 -213.5t-125 -173.5t-152 -136t-164 -93t-164 -51.5l-36 105q80 18 158 52.5t155 90.5t139.5 127t110 169t68.5 210l-3 2q-70 -83 -176.5 -131.5t-234.5 -48.5q-123 0 -219.5 52.5 t-152 151t-55.5 227.5q0 95 36 179.5t99 146t153.5 97.5t194.5 36zM549 635q126 0 238 65t170 182q-1 195 -105.5 311.5t-266.5 116.5q-83 0 -153 -28t-117.5 -75.5t-74 -112t-26.5 -136.5q0 -145 93 -234t242 -89z" />
<glyph unicode=":" horiz-adv-x="449" d="M218 823q-39 0 -65.5 25.5t-26.5 63.5q0 39 26.5 65t65.5 26q38 0 64.5 -26t26.5 -65q0 -37 -26.5 -63t-64.5 -26zM218 -10q-39 0 -65.5 25.5t-26.5 63.5q0 39 26.5 65t65.5 26q38 0 64.5 -26t26.5 -65q0 -37 -26.5 -63t-64.5 -26z" />
<glyph unicode=";" horiz-adv-x="434" d="M215 823q-39 0 -65.5 25.5t-26.5 63.5q0 39 26.5 65t65.5 26q38 0 64.5 -26t26.5 -65q0 -37 -26.5 -63t-64.5 -26zM77 -265l70 471h128l-114 -471h-84z" />
<glyph unicode="&#x3c;" horiz-adv-x="1170" d="M1023 106l-904 424v85l904 427v-121l-740 -348l740 -348v-119z" />
<glyph unicode="=" horiz-adv-x="1186" d="M132 741v110h952v-110h-952zM132 281v110h952v-110h-952z" />
<glyph unicode="&#x3e;" horiz-adv-x="1168" d="M147 106v119l740 348l-740 348v121l904 -427v-85z" />
<glyph unicode="?" horiz-adv-x="903" d="M346 399l-1 113q0 30 8 59.5t18.5 51t32.5 51t37 47t47 52.5t48 54q8 9 34.5 39t35.5 41t29 37.5t28 43.5t19 43t15 52.5t4 56.5q0 127 -78.5 198t-199.5 71q-81 0 -157.5 -40t-126.5 -113l-83 72q66 93 162.5 141.5t211.5 48.5q108 0 195 -44.5t139.5 -130.5t52.5 -198 q0 -51 -11 -97.5t-26.5 -81.5t-43 -74t-50 -64.5t-57.5 -62.5l-37 -37t-38 -38.5t-33 -36t-31.5 -41t-22.5 -40.5t-17.5 -46.5t-5.5 -48.5l-1 -78h-97zM399 -10q-39 0 -65.5 25.5t-26.5 63.5q0 39 26.5 65t65.5 26q38 0 64.5 -26t26.5 -65q0 -37 -26.5 -63t-64.5 -26z" />
<glyph unicode="@" horiz-adv-x="1852" d="M971 1339q150 0 278 -39t218 -106t153 -157t93.5 -193t30.5 -213q0 -73 -13 -146.5t-42.5 -145t-71.5 -126.5t-105.5 -89t-139.5 -34q-82 0 -135 37.5t-65 103.5q-4 27 -5 46h-6q-48 -78 -136 -122t-186 -44q-160 0 -264 109.5t-104 276.5q0 64 16.5 128.5t51 125 t82.5 107t117.5 74.5t150.5 28q103 0 182.5 -44t122.5 -128h5l17 162h116l-53 -566q-4 -33 -4 -64q0 -42 7 -69.5t21 -41t29 -18t37 -4.5q56 0 103.5 28t79 73t53.5 103.5t31.5 118t9.5 118.5q0 95 -26 184t-81 168.5t-133 139t-189.5 94t-243.5 34.5q-112 0 -212 -25.5 t-176.5 -69.5t-140.5 -104.5t-108 -130.5t-74.5 -146.5t-44.5 -152.5t-14 -150q0 -138 50 -259t136.5 -208t209 -137.5t261.5 -50.5q105 0 220 28.5t208 80.5l47 -72q-100 -62 -226.5 -96t-251.5 -34q-159 0 -298.5 56.5t-239 154.5t-156.5 236t-57 295q0 80 14.5 163.5 t47.5 170t80.5 165t118.5 147.5t157.5 120t201 80.5t245.5 29.5zM864 215q63 0 117 22t90.5 58.5t62.5 83.5t38 96t12 98q0 123 -75 203.5t-204 80.5q-75 0 -137 -29.5t-102 -78.5t-62 -110.5t-22 -128.5q0 -130 76.5 -212.5t205.5 -82.5z" />
<glyph unicode="A" horiz-adv-x="1365" d="M1180 0l-146 385h-703l-145 -385h-123l557 1455h122l562 -1455h-124zM372 495h621l-311 820h-2z" />
<glyph unicode="B" horiz-adv-x="1290" d="M876 761q59 -13 110.5 -42.5t93.5 -74t66.5 -110.5t24.5 -144q0 -87 -30 -158t-90 -123t-155 -80.5t-218 -28.5h-490v1455h448q104 0 187 -20t146 -61.5t97 -110.5t34 -162q0 -114 -58 -206t-166 -131v-3zM303 1345v-538h350q48 0 92.5 8.5t87.5 29t75 51t51.5 79 t19.5 108.5q0 262 -371 262h-305zM648 110q186 0 293.5 71.5t107.5 212.5q0 145 -101 224.5t-289 79.5h-356v-588h345z" />
<glyph unicode="C" horiz-adv-x="1483" d="M844 -8q-118 0 -224.5 30t-196 91t-155.5 147t-103 204t-37 257q0 124 29.5 236t89.5 204.5t145 160.5t200.5 105.5t251.5 37.5q158 0 303 -67.5t257 -208.5l-89 -73q-93 115 -215 175t-256 60q-139 0 -251.5 -48t-187 -132t-115 -199.5t-40.5 -250.5q0 -142 46 -259 t126 -194.5t188.5 -119.5t233.5 -42q280 0 471 233l89 -73q-219 -274 -560 -274z" />
<glyph unicode="D" horiz-adv-x="1479" d="M188 0v1455h409q170 0 312 -54t239 -150t150.5 -231t53.5 -295t-52.5 -294.5t-148.5 -229.5t-236.5 -148t-311.5 -53h-415zM303 110h293q141 0 260 46t201 127t127.5 195t45.5 247q0 135 -46 250.5t-127.5 196.5t-199.5 127t-258 46h-296v-1235z" />
<glyph unicode="E" d="M188 0v1455h868v-110h-753v-565h626v-110h-626v-560h796v-110h-911z" />
<glyph unicode="F" horiz-adv-x="1170" d="M188 0v1455h907v-110h-792v-580h679v-110h-679v-655h-115z" />
<glyph unicode="G" horiz-adv-x="1566" d="M810 725h597v-545q-104 -91 -249 -140t-313 -49q-155 0 -287.5 53t-227.5 147.5t-148.5 232.5t-53.5 302q0 161 52 298t145 234t226 152t291 55q328 0 542 -215l-83 -74q-184 175 -460 175q-128 0 -237.5 -45.5t-187.5 -126.5t-122 -198t-44 -255q0 -180 74 -321.5 t210 -220.5t311 -79q282 0 447 137v373h-482v110z" />
<glyph unicode="H" horiz-adv-x="1462" d="M188 0v1455h115v-712h856v712h115v-1455h-115v633h-856v-633h-115z" />
<glyph unicode="I" horiz-adv-x="517" d="M200 0v1455h116v-1455h-116z" />
<glyph unicode="J" horiz-adv-x="989" d="M437 -9q-96 0 -198.5 48t-174.5 136l64 89q64 -73 145.5 -117t164.5 -44q64 0 112.5 19t85.5 60.5t56 112t19 167.5v993h115v-1004q0 -232 -95.5 -346t-293.5 -114z" />
<glyph unicode="K" horiz-adv-x="1303" d="M555 687h-2l-250 -291v-396h-115v1455h115v-890h2l755 890h151l-578 -674l590 -781h-147z" />
<glyph unicode="L" horiz-adv-x="1126" d="M188 0v1455h115v-1345h762v-110h-877z" />
<glyph unicode="M" horiz-adv-x="1782" d="M1478 1455h116v-1455h-115v1224h-3l-543 -922h-84l-543 922h-3v-1224h-115v1455h117l585 -1004h4z" />
<glyph unicode="N" horiz-adv-x="1528" d="M1224 1455h115v-1455h-117l-916 1251h-3v-1251h-115v1455h113l919 -1257h4v1257z" />
<glyph unicode="O" horiz-adv-x="1697" d="M850 -10q-158 0 -294 57.5t-229.5 156.5t-146 235t-52.5 290q0 153 52.5 288t146 234t229.5 156.5t294 57.5q149 0 281 -53.5t229 -148.5t153 -233.5t56 -300.5q0 -163 -56 -302.5t-153 -234.5t-229 -148.5t-281 -53.5zM850 104q123 0 232.5 46t190 127t127.5 198.5 t47 253.5t-47 253t-127.5 197.5t-190 126t-232.5 45.5q-132 0 -245 -49t-190 -133.5t-121 -198.5t-44 -241q0 -129 43.5 -243.5t121 -198.5t190.5 -133.5t245 -49.5z" />
<glyph unicode="P" horiz-adv-x="1239" d="M188 0v1455h493q121 0 212 -32.5t146 -91.5t81.5 -135.5t26.5 -171.5q0 -111 -36.5 -195.5t-103.5 -136.5t-157 -78t-203 -26h-344v-588h-115zM303 698h340q101 0 176.5 25t119.5 70t65 103t21 129q0 157 -92 238.5t-253 81.5h-377v-647z" />
<glyph unicode="Q" horiz-adv-x="1726" d="M1601 69l-75 -92l-202 183q-95 -82 -216.5 -126t-257.5 -44q-159 0 -294.5 57.5t-229 156.5t-146 235t-52.5 290q0 153 52.5 288t146 234t229.5 156.5t294 57.5q149 0 281 -53.5t229 -148.5t153 -233.5t56 -300.5q0 -285 -163 -485zM851 104q224 0 383 137l-185 168 l75 89l191 -172q132 168 132 403q0 133 -45.5 248.5t-124 197.5t-189.5 129t-237 47q-129 0 -241 -48t-191 -130.5t-124 -197.5t-45 -246q0 -132 45 -247.5t124 -198.5t191 -131t241 -48z" />
<glyph unicode="R" horiz-adv-x="1299" d="M1179 0h-145l-402 588h-329v-588h-115v1455h497q119 0 209.5 -32.5t146 -91t83 -136t27.5 -171.5q0 -190 -102 -297.5t-280 -131.5v-2zM303 1345v-647h343q101 0 176 24.5t119.5 69.5t66 103t21.5 130q0 158 -92 239t-258 81h-376z" />
<glyph unicode="S" horiz-adv-x="1180" d="M601 -10q-141 0 -273 55t-234 167l75 90q80 -96 195.5 -147.5t236.5 -51.5q151 0 248.5 72.5t97.5 191.5q0 40 -9.5 74t-22.5 59t-40.5 49.5t-48.5 39.5t-63.5 34.5t-68 30t-77.5 30.5q-24 9 -36 14q-7 3 -20 8q-57 22 -86 34t-80 36t-79 43t-64.5 50t-55 63t-32 74.5 t-13.5 91.5q0 103 57 187t156 132t218 48q113 0 227.5 -41.5t215.5 -120.5l-74 -94q-86 69 -183 106t-187 37q-58 0 -112 -16t-97 -46t-69.5 -78t-26.5 -107q0 -47 17 -85.5t39 -63.5t69.5 -51.5t79.5 -40.5t98 -39q28 -11 42 -17t41 -16q63 -25 94 -38t83 -38t78 -44.5 t61 -51t51.5 -65t28.5 -78.5t12 -98q0 -116 -63 -206t-169.5 -136.5t-236.5 -46.5z" />
<glyph unicode="T" horiz-adv-x="1157" d="M517 0v1345h-455v110h1032v-110h-462v-1345h-115z" />
<glyph unicode="U" horiz-adv-x="1435" d="M717 -10q-121 0 -222 41t-173.5 116t-112.5 188t-40 251v869h115v-860q0 -225 118.5 -358t314.5 -133t315.5 131.5t119.5 359.5v860h115v-869q0 -137 -39.5 -249t-111.5 -188t-174 -117.5t-225 -41.5z" />
<glyph unicode="V" horiz-adv-x="1347" d="M1157 1455h126l-554 -1455h-108l-553 1455h126l479 -1283h3z" />
<glyph unicode="W" horiz-adv-x="2073" d="M1876 1455h123l-468 -1455h-120l-372 1284h-2l-375 -1284h-120l-468 1455h122l404 -1264h4l368 1264h131l366 -1268h4z" />
<glyph unicode="X" horiz-adv-x="1315" d="M1101 0l-441 628h-4l-442 -628h-140l508 726l-506 729h136l445 -633h3l439 633h138l-504 -729l508 -726h-140z" />
<glyph unicode="Y" d="M1023 1455h136l-504 -799v-656h-115v656l-500 799h135l419 -675h8z" />
<glyph unicode="Z" horiz-adv-x="1244" d="M274 110h836v-110h-988v96l828 1245v4h-781v110h934v-97l-829 -1243v-5z" />
<glyph unicode="[" horiz-adv-x="597" d="M146 -292v1780h351v-92h-249v-1596h249v-92h-351z" />
<glyph unicode="\" horiz-adv-x="833" d="M776 -232l-791 1743l94 47l792 -1745z" />
<glyph unicode="]" horiz-adv-x="597" d="M451 -292h-351v92h249v1596h-249v92h351v-1780z" />
<glyph unicode="^" horiz-adv-x="959" d="M137 1023l292 432h100l293 -432h-115l-229 342l-229 -342h-112z" />
<glyph unicode="_" horiz-adv-x="1072" d="M-5 -150v93h1081v-93h-1081z" />
<glyph unicode="`" horiz-adv-x="1043" d="M553 1115l-255 283h136l246 -283h-127z" />
<glyph unicode="a" horiz-adv-x="1225" d="M962 995h108v-995h-103v191h-3q-60 -95 -157 -148t-222 -53q-100 0 -189 36t-155 100t-104.5 158t-38.5 205q0 144 61 261.5t172 186t250 68.5q117 0 216 -54t161 -151h4v195zM592 92q75 0 143 29t119 80t81.5 125.5t30.5 161.5q0 114 -47.5 208.5t-133 150t-192.5 55.5 q-79 0 -149 -29.5t-122.5 -82.5t-83 -131.5t-30.5 -170.5q0 -111 48 -201.5t136 -142.5t200 -52z" />
<glyph unicode="b" horiz-adv-x="1242" d="M656 1005q139 0 250 -68.5t172 -186t61 -261.5q0 -111 -38.5 -205t-104.5 -158t-155 -100t-189 -36q-124 0 -221 53t-157 147h-3v-190h-105v1508h108v-708h5q62 97 161 151t216 54zM645 92q112 0 200 52t136 142.5t48 201.5q0 92 -30.5 170.5t-83 131.5t-123 82.5 t-148.5 29.5q-107 0 -192.5 -55.5t-133 -150t-47.5 -208.5q0 -87 30 -161.5t81.5 -125.5t119.5 -80t143 -29z" />
<glyph unicode="c" horiz-adv-x="1059" d="M586 -10q-141 0 -251.5 64t-172 179t-61.5 263t61.5 263.5t173 180t254.5 64.5q110 0 213 -43t174 -124l-77 -69q-52 61 -132 97.5t-174 36.5q-170 0 -276.5 -113.5t-106.5 -291.5q0 -180 106 -292.5t276 -112.5q93 0 176 35t137 96l74 -71q-66 -72 -170.5 -117 t-223.5 -45z" />
<glyph unicode="d" horiz-adv-x="1240" d="M966 1508h108v-1508h-105v189h-4q-59 -94 -156 -146.5t-221 -52.5q-100 0 -189 36t-155 100t-104.5 158t-38.5 205q0 144 61 261.5t172 186t250 68.5q117 0 216 -54t161 -151h5v708zM595 92q75 0 143 29t119 80t81.5 125.5t30.5 161.5q0 114 -47.5 208.5t-133 150 t-192.5 55.5q-79 0 -149 -29.5t-122.5 -82.5t-83 -131.5t-30.5 -170.5q0 -111 48 -201.5t136 -142.5t200 -52z" />
<glyph unicode="e" horiz-adv-x="1112" d="M1016 524q0 -44 -3 -53h-801q8 -169 112 -274t260 -105q98 0 177.5 40t135.5 110l77 -66q-66 -87 -164.5 -136.5t-224.5 -49.5q-102 0 -191.5 37t-154 103t-101.5 161t-37 206q0 110 36.5 205t99 161t148 103.5t182.5 37.5q133 0 236 -62.5t158 -171.5t55 -246zM576 902 q-138 0 -238 -91t-122 -240h692q-17 150 -106 240.5t-226 90.5z" />
<glyph unicode="f" horiz-adv-x="671" d="M212 0v895h-130v100h130v220q0 151 69 227t192 76q113 0 213 -58l-23 -96q-93 51 -181 51q-75 0 -118.5 -50.5t-43.5 -158.5v-211h317v-100h-317v-895h-108z" />
<glyph unicode="g" horiz-adv-x="1216" d="M956 995h107v-948q0 -103 -28.5 -186.5t-85.5 -145.5t-148 -96t-211 -34q-222 0 -405 111l27 102q94 -58 182 -84.5t194 -26.5q92 0 163 26t115.5 72.5t67 108.5t22.5 137v170h-4q-62 -87 -157 -134.5t-213 -47.5q-100 0 -188.5 35t-153.5 97.5t-102.5 155t-37.5 201.5 q0 140 59.5 253t169.5 178.5t249 65.5q114 0 212 -49t162 -138h4v177zM586 121q110 0 195.5 52t131.5 142.5t46 203.5q0 85 -29 157t-79 121.5t-118.5 77.5t-145.5 28q-109 0 -195 -51t-134 -140.5t-48 -200.5q0 -87 30 -161t81.5 -124t120 -77.5t144.5 -27.5z" />
<glyph unicode="h" horiz-adv-x="1157" d="M664 1005q165 0 255.5 -100t90.5 -315v-590h-108v576q0 95 -19.5 160.5t-56.5 101t-82 50.5t-105 15q-165 0 -265 -112t-100 -298v-493h-108v1508h108v-707h4q63 97 163.5 150.5t222.5 53.5z" />
<glyph unicode="i" horiz-adv-x="467" d="M235 1206q-39 0 -65 25.5t-26 63.5t26 64.5t65 26.5q38 0 64.5 -26.5t26.5 -64.5q0 -37 -26.5 -63t-64.5 -26zM179 0v995h108v-995h-108z" />
<glyph unicode="j" horiz-adv-x="425" d="M220 1202q-39 0 -65 25.5t-26 63.5t26 64.5t65 26.5q38 0 64.5 -26.5t26.5 -64.5q0 -37 -26.5 -63t-64.5 -26zM45 -415q-81 0 -152 32l17 101q49 -32 115 -32t104.5 43t38.5 133v1133h108v-1133q0 -126 -57.5 -201.5t-173.5 -75.5z" />
<glyph unicode="k" horiz-adv-x="1040" d="M979 995l-382 -421l382 -574h-126l-330 490h-3l-246 -271v-219h-108v1508h108v-1135h3l564 622h138z" />
<glyph unicode="l" horiz-adv-x="465" d="M178 0v1508h108v-1508h-108z" />
<glyph unicode="m" horiz-adv-x="1791" d="M1312 1005q167 0 252 -106.5t85 -317.5v-583h-108v549q0 98 -16.5 167t-49.5 110.5t-79 60t-109 18.5q-67 0 -126 -29.5t-103 -81.5t-69.5 -129.5t-25.5 -169.5v-495h-108v558q0 184 -65 265.5t-185 81.5q-142 0 -236.5 -113t-94.5 -297v-493h-108v995h108v-189h4 q61 94 154.5 146.5t197.5 52.5q114 0 191.5 -54.5t113.5 -161.5h6q59 103 156.5 159.5t214.5 56.5z" />
<glyph unicode="n" horiz-adv-x="1146" d="M664 1005q157 0 246 -100.5t89 -314.5v-590h-108v576q0 76 -13 133.5t-35.5 94t-55 59t-68.5 31.5t-80 9q-165 0 -265 -112t-100 -298v-493h-108v995h108v-194h4q63 97 163.5 150.5t222.5 53.5z" />
<glyph unicode="o" horiz-adv-x="1211" d="M606 -10q-112 0 -207.5 40t-160.5 108t-101.5 161t-36.5 197q0 105 36.5 198.5t101.5 162t160.5 108.5t207.5 40q142 0 257 -63.5t181 -180t66 -265.5q0 -147 -66 -263t-181 -179.5t-257 -63.5zM605 92q109 0 199 50.5t143 143.5t53 210q0 89 -31 165.5t-84 129.5 t-125.5 82.5t-154.5 29.5q-116 0 -207 -55t-139.5 -147.5t-48.5 -204.5q0 -111 49 -203t140 -146.5t206 -54.5z" />
<glyph unicode="p" horiz-adv-x="1241" d="M656 1005q139 0 250 -68.5t172 -186t61 -261.5q0 -111 -38.5 -205t-104.5 -158t-155 -100t-189 -36q-123 0 -218.5 51t-155.5 143h-4v-589h-108v1400h108v-197h4q62 98 161.5 152.5t216.5 54.5zM645 92q112 0 200 52t136 142.5t48 201.5q0 92 -30.5 170.5t-83 131.5 t-123 82.5t-148.5 29.5q-107 0 -192.5 -55.5t-133 -150t-47.5 -208.5q0 -87 30 -161.5t81.5 -125.5t119.5 -80t143 -29z" />
<glyph unicode="q" horiz-adv-x="1239" d="M968 995h108v-1400h-108v589h-4q-60 -92 -155.5 -143t-218.5 -51q-100 0 -189 36t-155 100t-104.5 158t-38.5 205q0 144 61 261.5t172 186t250 68.5q117 0 216.5 -54.5t161.5 -152.5h4v197zM597 92q75 0 143 29t119.5 80t81.5 125.5t30 161.5q0 114 -47.5 208.5t-133 150 t-192.5 55.5q-78 0 -148.5 -29.5t-123 -82.5t-83 -131.5t-30.5 -170.5q0 -111 48 -201.5t136 -142.5t200 -52z" />
<glyph unicode="r" horiz-adv-x="702" d="M617 1005q36 0 53 -1v-120q-46 4 -63 4q-151 0 -242 -111.5t-91 -288.5v-488h-108v995h108v-189h5q55 95 142.5 147t195.5 52z" />
<glyph unicode="s" horiz-adv-x="887" d="M457 -10q-223 0 -383 141l61 85q63 -61 137 -92.5t184 -31.5q108 0 170 49t62 125q0 19 -4 35t-14.5 30t-20.5 25t-30.5 22.5t-34.5 19t-43 18.5t-46 17t-53 18q-19 7 -29 10q-55 19 -93 35t-79 41.5t-65.5 53.5t-40 69t-15.5 90q0 110 88 182t223 72q188 0 330 -121 l-60 -85q-120 105 -281 105q-80 0 -135.5 -41t-55.5 -112q0 -22 6 -41t14.5 -33t26 -28t31 -22.5t40 -20t42.5 -17.5t48 -17q7 -3 11 -4q13 -5 37 -13q53 -19 78 -28t66 -27t60 -31.5t45 -35.5t37 -45.5t19.5 -55.5t8.5 -70q0 -55 -22 -103.5t-63.5 -86t-107.5 -59.5 t-149 -22z" />
<glyph unicode="t" horiz-adv-x="746" d="M434 -10q-130 0 -185.5 73.5t-55.5 217.5v614h-132v100h132v348l108 13v-361h363v-100h-363v-587q0 -111 30.5 -162.5t114.5 -51.5q90 0 188 57l28 -97q-105 -64 -228 -64z" />
<glyph unicode="u" horiz-adv-x="1120" d="M857 995h108v-995h-108v184h-4q-61 -92 -153 -143t-193 -51q-173 0 -268 104.5t-95 304.5v596h108v-563q0 -93 18 -159t54 -105t84.5 -57t113.5 -18q66 0 127 29.5t107 81.5t73.5 130t27.5 169v492z" />
<glyph unicode="v" horiz-adv-x="1052" d="M874 995h119l-412 -995h-105l-416 995h119l347 -850h5z" />
<glyph unicode="w" horiz-adv-x="1567" d="M1387 995h111l-349 -995h-112l-256 803h-4l-250 -803h-110l-349 995h113l288 -829h4l257 829h100l264 -830h4z" />
<glyph unicode="x" horiz-adv-x="1012" d="M817 0l-308 412h-3l-308 -412h-128l373 499l-375 496h131l303 -406h6l303 406h132l-370 -494l373 -501h-129z" />
<glyph unicode="y" horiz-adv-x="1070" d="M892 995h119l-579 -1400h-117l176 432l-434 968h118l369 -836h5z" />
<glyph unicode="z" horiz-adv-x="944" d="M221 100h645v-100h-792v87l637 803v5h-609v100h758v-84l-639 -806v-5z" />
<glyph unicode="{" horiz-adv-x="669" d="M361 785q0 -88 -25.5 -133.5t-96.5 -61.5v-2q72 -17 97 -59.5t25 -137.5v-430q0 -90 32.5 -129t105.5 -39h56v-84h-86q-90 0 -149 55.5t-59 151.5v471q0 20 -0.5 32t-4 29.5t-9.5 28t-17.5 23t-28 20t-42 13.5t-57.5 8v93q32 3 57.5 9.5t42 14.5t28 20.5t17.5 23.5 t9.5 28t4 29t0.5 31v490q0 89 56 148.5t152 59.5h86v-85h-56q-63 0 -100.5 -40t-37.5 -102v-476z" />
<glyph unicode="|" horiz-adv-x="577" d="M236 -235v1744h105v-1744h-105z" />
<glyph unicode="}" horiz-adv-x="669" d="M408 790q0 -19 0.5 -31t4 -29t9.5 -28t17.5 -23.5t28 -20.5t42 -14.5t57.5 -9.5v-93q-32 -2 -57.5 -8t-42 -13.5t-28 -20t-17.5 -23t-9.5 -28t-4 -29.5t-0.5 -32v-471q0 -96 -59 -151.5t-149 -55.5h-86v84h56q73 0 105.5 39t32.5 129v430q0 95 25 137.5t97 59.5v2 q-71 16 -96.5 61.5t-25.5 133.5v476q0 62 -37.5 102t-100.5 40h-56v85h86q96 0 152 -59.5t56 -148.5v-490z" />
<glyph unicode="~" horiz-adv-x="1141" d="M775 449q-16 0 -32.5 2t-29.5 4.5t-30.5 8.5t-27.5 9.5t-29 12t-26 12t-27.5 14t-25.5 12.5q-96 49 -162 49q-110 0 -165 -115l-85 34q77 193 238 193q39 0 80.5 -10.5t63.5 -20t65 -29.5q4 -2 19 -10t20 -10.5l19 -9.5t21 -9.5t19.5 -7.5t21 -7t20 -5t22 -4t21.5 -1 q48 0 90 30t65 85l85 -31q-32 -92 -94.5 -144t-135.5 -52z" />
<glyph unicode="&#xa1;" horiz-adv-x="462" d="M231 1003q38 0 64.5 -26t26.5 -63q0 -39 -26.5 -65t-64.5 -26q-39 0 -65.5 26t-26.5 65q0 38 26.5 63.5t65.5 25.5zM189 593h91l21 -1108h-132z" />
<glyph unicode="&#xa2;" horiz-adv-x="1105" d="M1018 262q-61 -65 -153.5 -108t-200.5 -52v-221h-90v220q-204 14 -330.5 152.5t-126.5 352.5t126.5 354t330.5 154v235h90v-236q102 -9 194 -51t156 -114l-77 -69q-54 61 -136 97.5t-179 36.5q-176 0 -285.5 -113t-109.5 -293q0 -181 109 -293t285 -112q95 0 181 35 t141 96z" />
<glyph unicode="&#xa3;" horiz-adv-x="1148" d="M99 0v109h175v616h-136v97h136v136q0 95 21 171.5t57.5 128.5t87 87t107 51t120.5 16q117 0 210.5 -52.5t155.5 -148.5l-67 -74q-50 81 -123.5 122t-164.5 41q-136 0 -213.5 -88t-77.5 -275v-115h366v-97h-364v-617h702v-108h-992z" />
<glyph unicode="&#xa4;" horiz-adv-x="1026" d="M883 789q0 -134 -84 -235l159 -159l-57 -57l-159 159q-103 -82 -236 -82q-131 0 -234 82l-158 -157l-58 58l158 157q-81 103 -81 234t82 234l-159 159l58 57l158 -158q103 84 235 84q133 0 235 -83l159 159l57 -57l-158 -159q83 -106 83 -236zM508 503q118 1 202.5 85 t85.5 202q-1 119 -85.5 203t-203.5 84q-118 -1 -202 -84.5t-85 -201.5q1 -119 85 -203t203 -85z" />
<glyph unicode="&#xa5;" horiz-adv-x="1109" d="M1078 1406l-336 -579h232v-98h-289l-71 -123v-19h360v-98h-360v-489h-115v489h-369v98h369v19l-71 123h-298v98h241l-337 579h135l385 -678h4l386 678h134z" />
<glyph unicode="&#xa6;" horiz-adv-x="577" d="M236 790v719h105v-719h-105zM236 -234v725h105v-725h-105z" />
<glyph unicode="&#xa7;" horiz-adv-x="1094" d="M787 253q72 -43 110.5 -101t38.5 -143q0 -142 -104.5 -231.5t-281.5 -89.5q-120 0 -229.5 45.5t-192.5 137.5l73 83q65 -79 157.5 -118.5t187.5 -39.5q73 0 134 23t100 71.5t39 114.5q0 22 -5 41.5t-12 35t-21.5 31t-26.5 26t-35 23.5t-38 21t-45 20t-47.5 18.5 l-52.5 19.5q-9 3 -13 5q-3 1 -8 3l-88.5 33t-79.5 33t-75.5 38.5t-59.5 43t-50 52.5t-28 61.5t-12 76.5q0 93 51.5 163t143.5 104q-68 42 -105 99.5t-37 140.5q0 133 98 220t258 87q96 0 199.5 -37t178.5 -98l-72 -82q-68 53 -148.5 81t-150.5 28q-64 0 -119.5 -21.5 t-92.5 -67t-37 -106.5q0 -21 5 -40.5t12 -35t21.5 -31t26.5 -26.5t34 -23.5t36.5 -20.5t42.5 -20t44 -18t47 -18q11 -4 16 -6q15 -5 43 -16q56 -21 83.5 -32t73 -31t67.5 -35.5t51 -40.5t42.5 -51t23.5 -61t10 -76q0 -87 -47 -156t-134 -107zM235 604q0 -24 5.5 -45.5 t18.5 -40t27 -33.5t39 -30.5t45.5 -26.5t56 -26t60.5 -24.5t69 -25.5q48 -17 103 -39q88 18 141.5 68.5t53.5 121.5q0 20 -3 37.5t-10.5 33t-15 28.5t-22.5 26t-26 22t-33.5 20.5t-36.5 18.5t-42.5 18.5t-45 17.5t-49.5 19q-19 6 -28 10q-15 5 -45 16.5t-45 17.5 q-94 -9 -155.5 -60t-61.5 -124z" />
<glyph unicode="&#xa8;" horiz-adv-x="1023" d="M344 1178q-39 0 -65 25.5t-26 63.5q0 39 25.5 64.5t65.5 25.5q39 0 65 -26t26 -64t-26 -63.5t-65 -25.5zM682 1180q-37 0 -63.5 25.5t-26.5 61.5q0 37 26.5 63t63.5 26q38 0 63.5 -26t25.5 -63q0 -36 -25.5 -61.5t-63.5 -25.5z" />
<glyph unicode="&#xa9;" horiz-adv-x="1409" d="M704 41q-125 0 -237.5 49t-192.5 131.5t-127.5 195t-47.5 234.5t47.5 234.5t128 195t194 131.5t238.5 49t237 -49t192 -131.5t127 -194.5t47 -235q0 -122 -47.5 -234t-127.5 -194.5t-193 -132t-238 -49.5zM704 129q107 0 203 42t165 112.5t109 166.5t40 201t-40 201.5 t-108 166.5t-164 112t-202 42q-108 0 -204.5 -42t-165 -112.5t-109 -167t-40.5 -201.5t40 -201t108.5 -166.5t164.5 -112t203 -41.5zM723 314q-68 0 -128 22t-105.5 63t-71.5 105t-26 143q0 94 37 169.5t113.5 121.5t180.5 46q72 0 139 -31.5t119 -95.5l-62 -51 q-79 97 -196 97q-115 0 -180 -70.5t-65 -185.5q0 -118 68 -185t177 -67q122 0 196 96l62 -52q-101 -125 -258 -125z" />
<glyph unicode="&#xaa;" horiz-adv-x="859" d="M640 1407h86v-597h-86v98h-3q-41 -50 -102.5 -78t-131.5 -28q-130 0 -214.5 84t-84.5 218q0 132 82.5 220.5t212.5 88.5q68 0 131 -29.5t107 -82.5h3v106zM419 885q94 0 158.5 61.5t64.5 157.5t-63 161.5t-158 65.5q-98 0 -163.5 -63.5t-65.5 -163.5q0 -94 63.5 -156.5 t163.5 -62.5z" />
<glyph unicode="&#xab;" horiz-adv-x="891" d="M466 40h-115l-262 461l262 460h116l-260 -460zM791 40h-115l-262 461l262 460h116l-260 -460z" />
<glyph unicode="&#xac;" horiz-adv-x="1161" d="M927 355v320h-798v106h904v-426h-106z" />
<glyph unicode="&#xad;" horiz-adv-x="850" d="M125 578v110h600v-110h-600z" />
<glyph unicode="&#xae;" horiz-adv-x="1413" d="M708 1263q125 0 238 -49t193 -131.5t127 -195.5t47 -236q0 -122 -47.5 -234.5t-128 -195t-193.5 -132t-239 -49.5q-125 0 -237.5 49t-193 131.5t-128 195t-47.5 235.5q0 122 47.5 235t128.5 195.5t194.5 132t238.5 49.5zM705 127q107 0 204 42t165.5 113t109 167.5 t40.5 201.5q0 106 -40 202.5t-108.5 167t-164.5 112.5t-203 42q-108 0 -204.5 -42t-165.5 -113t-109.5 -168t-40.5 -202t40 -201.5t109 -167t165 -112.5t203 -42zM946 786q0 -82 -42 -130.5t-117 -63.5l189 -268h-97l-182 261h-115v-261h-81v663h230q108 0 161.5 -55 t53.5 -146zM582 911v-251h130q79 0 115 36t36 92q0 57 -37 90t-102 33h-142z" />
<glyph unicode="&#xaf;" horiz-adv-x="952" d="M192 1207v103h568v-103h-568z" />
<glyph unicode="&#xb0;" horiz-adv-x="813" d="M406 916q-114 0 -197 80.5t-83 193.5q0 73 39 137t103.5 101t137.5 37t137.5 -37t103.5 -101.5t39 -139.5q0 -111 -83 -191t-197 -80zM406 1006q77 0 132.5 53.5t55.5 127.5q0 77 -56.5 132.5t-131.5 55.5t-131.5 -55.5t-56.5 -130.5q0 -76 55.5 -129.5t132.5 -53.5z" />
<glyph unicode="&#xb1;" horiz-adv-x="1231" d="M545 309v420h-422v110h422v422h109v-422h421v-110h-421v-420h-109zM156 -6v110h952v-110h-952z" />
<glyph unicode="&#xb2;" horiz-adv-x="694" d="M225 990h397v-97h-566l-1 75l311 289q70 64 105.5 119.5t35.5 113.5q0 64 -50 109.5t-126 45.5q-57 0 -110.5 -30t-83.5 -88l-81 58q38 72 113.5 116t167.5 44q73 0 134.5 -30.5t100.5 -91.5t39 -141q0 -132 -157 -277l-229 -211v-4z" />
<glyph unicode="&#xb3;" horiz-adv-x="704" d="M497 1326q69 -28 107.5 -82.5t38.5 -126.5q0 -105 -80 -170t-210 -65q-112 0 -193 47t-115 123l95 43q51 -114 207 -114q88 0 139.5 40.5t51.5 112.5q0 61 -55.5 103t-148.5 42h-76v95h89q76 0 121.5 37.5t45.5 92.5q0 65 -47 103t-126 38q-123 0 -178 -90l-88 53 q36 62 104.5 99t162.5 37q119 0 197.5 -59.5t78.5 -163.5q0 -63 -31 -113t-90 -78v-4z" />
<glyph unicode="&#xb4;" horiz-adv-x="1043" d="M363 1115l245 283h136l-254 -283h-127z" />
<glyph unicode="&#xb5;" horiz-adv-x="1156" d="M886 995h109v-995h-99l-9 204h-2q-56 -101 -144 -157.5t-190 -56.5q-198 0 -285 153l-2 -2q6 -110 6 -224v-322h-108v1400h109v-536q0 -185 77.5 -276t219.5 -91q65 0 123.5 29t101.5 81.5t68 130t25 168.5v494z" />
<glyph unicode="&#xb6;" horiz-adv-x="896" d="M608 -305v1534h-123v-1229h-84v777q-131 4 -211 74t-80 194q0 126 81 198t220 72h279v-1620h-82z" />
<glyph unicode="&#xb7;" horiz-adv-x="442" d="M219 404q-39 0 -65.5 25.5t-26.5 63.5q0 39 26.5 65t65.5 26q38 0 64.5 -26t26.5 -65q0 -37 -26.5 -63t-64.5 -26z" />
<glyph unicode="&#xb8;" horiz-adv-x="792" d="M380 -70q73 -4 122.5 -46.5t49.5 -113.5q0 -65 -51 -108t-147 -43q-55 0 -107 13v69q47 -14 96 -14q52 0 88.5 23t36.5 66q0 41 -44 70.5t-126 29.5l2 52l38 84h77l-37 -79z" />
<glyph unicode="&#xb9;" horiz-adv-x="514" d="M273 893v708l-180 -122l-52 82l253 174h83v-842h-104z" />
<glyph unicode="&#xba;" horiz-adv-x="836" d="M414 802q-136 0 -223 87.5t-87 218.5t87 218.5t223 87.5q133 0 222 -85.5t89 -220.5t-89 -220.5t-222 -85.5zM414 885q95 0 158 62.5t63 160.5q0 99 -63 161.5t-158 62.5q-98 0 -159 -64.5t-61 -159.5q0 -94 61 -158.5t159 -64.5z" />
<glyph unicode="&#xbb;" horiz-adv-x="891" d="M100 40l259 461l-260 460h116l262 -460l-262 -461h-115zM425 40l259 461l-260 460h116l262 -460l-262 -461h-115z" />
<glyph unicode="&#xbc;" horiz-adv-x="1573" d="M478 -27l-97 36l632 1461l96 -37zM273 613v708l-180 -122l-52 82l253 174h83v-842h-104zM1284 0v146h-409v73l430 624h83v-600h131v-97h-131v-146h-104zM1012 243h272v398z" />
<glyph unicode="&#xbd;" horiz-adv-x="1634" d="M1013 1470l96 -37l-631 -1460l-97 36zM41 1281l253 174h83v-842h-104v708l-180 -122zM1165 97h397v-97h-566l-1 75l311 289q70 64 105.5 119.5t35.5 113.5q0 64 -50 109.5t-126 45.5q-57 0 -110.5 -30t-83.5 -88l-81 58q38 72 113.5 116t167.5 44q73 0 134.5 -30.5 t100.5 -91.5t39 -141q0 -132 -157 -277l-229 -211v-4z" />
<glyph unicode="&#xbe;" horiz-adv-x="1731" d="M1171 1470l96 -37l-631 -1460l-97 36zM643 837q0 -105 -80 -170t-210 -65q-112 0 -193 47t-115 123l95 43q51 -114 207 -114q88 0 139.5 40.5t51.5 112.5q0 61 -55.5 103t-148.5 42h-76v95h89q76 0 121.5 37.5t45.5 92.5q0 65 -47 103t-126 38q-123 0 -178 -90l-88 53 q36 62 104.5 99t162.5 37q119 0 197.5 -59.5t78.5 -163.5q0 -63 -31 -113t-90 -78v-4q69 -28 107.5 -82.5t38.5 -126.5zM1546 243h131v-97h-131v-146h-104v146h-409v73l430 624h83v-600zM1442 243v398l-272 -398h272z" />
<glyph unicode="&#xbf;" horiz-adv-x="850" d="M504 1004q39 0 65.5 -25.5t26.5 -63.5q0 -39 -26.5 -65t-65.5 -26q-38 0 -64.5 26t-26.5 65q0 37 26.5 63t64.5 26zM557 595l1 -113q0 -30 -8 -59.5t-18.5 -51t-32.5 -51t-37 -47t-47 -52.5t-48 -54q-8 -9 -34.5 -39t-35.5 -41t-29 -37.5t-28 -43.5t-19 -43t-15 -52.5 t-4 -56.5q0 -127 78.5 -198t199.5 -71q81 0 157.5 40t126.5 113l83 -72q-66 -93 -162.5 -141.5t-211.5 -48.5q-108 0 -195 44.5t-139.5 130.5t-52.5 198q0 51 11 97.5t26.5 81.5t43 74t50 64.5t57.5 62.5l37 37t38 38.5t33 36t31.5 41t22.5 40.5t17.5 46.5t5.5 48.5l1 78h97 z" />
<glyph unicode="&#xc0;" horiz-adv-x="1365" d="M744 1630h-127l-255 283h136zM1180 0l-146 385h-703l-145 -385h-123l557 1455h122l562 -1455h-124zM372 495h621l-311 820h-2z" />
<glyph unicode="&#xc1;" horiz-adv-x="1365" d="M1026 1913l-254 -283h-127l245 283h136zM1180 0l-146 385h-703l-145 -385h-123l557 1455h122l562 -1455h-124zM372 495h621l-311 820h-2z" />
<glyph unicode="&#xc2;" horiz-adv-x="1365" d="M677 1825l-171 -198h-125l244 286h105l250 -286h-126l-171 198h-6zM1180 0l-146 385h-703l-145 -385h-123l557 1455h122l562 -1455h-124zM372 495h621l-311 820h-2z" />
<glyph unicode="&#xc3;" horiz-adv-x="1365" d="M534 1781q-85 0 -126 -119l-77 35q58 181 192 181q32 0 64 -10.5t49.5 -20.5t49.5 -30q8 -5 27 -18t29 -19.5t26 -15t30 -12t28 -3.5q38 0 70 30.5t51 88.5l76 -26q-26 -93 -75.5 -142t-110.5 -49q-13 0 -26 2t-23 4.5t-24 9t-22 10t-23 12.5t-20 12.5t-21.5 14.5 l-19.5 13q-77 52 -124 52zM1180 0l-146 385h-703l-145 -385h-123l557 1455h122l562 -1455h-124zM372 495h621l-311 820h-2z" />
<glyph unicode="&#xc4;" horiz-adv-x="1365" d="M512 1693q-39 0 -65 25.5t-26 63.5t25.5 64t65.5 26q39 0 65 -26t26 -64t-26 -63.5t-65 -25.5zM850 1695q-37 0 -63.5 25.5t-26.5 61.5q0 37 26.5 63t63.5 26q38 0 63.5 -26t25.5 -63q0 -36 -25.5 -61.5t-63.5 -25.5zM1180 0l-146 385h-703l-145 -385h-123l557 1455h122 l562 -1455h-124zM372 495h621l-311 820h-2z" />
<glyph unicode="&#xc5;" horiz-adv-x="1365" d="M681 1595q-76 0 -131 53.5t-55 128.5t54 129t132 54q76 0 131 -53t55 -130q0 -75 -54 -128.5t-132 -53.5zM681 1871q-39 0 -66.5 -27.5t-27.5 -65.5t27.5 -65t66.5 -27q38 0 66 27t28 65t-28 65.5t-66 27.5zM1180 0l-146 385h-703l-145 -385h-123l557 1455h122l562 -1455 h-124zM372 495h621l-311 820h-2z" />
<glyph unicode="&#xc6;" horiz-adv-x="1905" d="M1007 110h797v-110h-911v385h-532l-215 -385h-128l812 1455h933v-110h-756v-565h635v-110h-635v-560zM422 495h471v839h-2z" />
<glyph unicode="&#xc7;" horiz-adv-x="1483" d="M844 106q280 0 471 233l89 -73q-219 -274 -560 -274h-6l-28 -59l2 -3q73 -4 122.5 -46.5t49.5 -113.5q0 -65 -51 -108t-147 -43q-55 0 -107 13v69q47 -14 96 -14q52 0 88.5 23t36.5 66q0 41 -44.5 70.5t-125.5 29.5l2 52l29 64v4q-133 13 -247.5 66.5t-201 143 t-135.5 222.5t-49 293q0 124 29.5 236t89.5 204.5t145 160.5t200.5 105.5t251.5 37.5q158 0 303 -67.5t257 -208.5l-89 -73q-93 115 -215 175t-256 60q-139 0 -251.5 -48t-187 -132t-115 -199.5t-40.5 -250.5q0 -142 46 -259t126 -194.5t188.5 -119.5t233.5 -42z" />
<glyph unicode="&#xc8;" d="M689 1631l-255 283h136l246 -283h-127zM188 0v1455h868v-110h-753v-565h626v-110h-626v-560h796v-110h-911z" />
<glyph unicode="&#xc9;" d="M466 1631l245 283h136l-254 -283h-127zM188 0v1455h868v-110h-753v-565h626v-110h-626v-560h796v-110h-911z" />
<glyph unicode="&#xca;" d="M624 1826l-171 -198h-125l244 286h105l250 -286h-126l-171 198h-6zM303 110h796v-110h-911v1455h868v-110h-753v-565h626v-110h-626v-560z" />
<glyph unicode="&#xcb;" d="M459 1694q-39 0 -65 25.5t-26 63.5t26 64t65 26t65 -26t26 -64t-26 -63.5t-65 -25.5zM797 1696q-37 0 -63.5 25.5t-26.5 61.5q0 37 26.5 63t63.5 26q38 0 63.5 -26t25.5 -63q0 -36 -25.5 -61.5t-63.5 -25.5zM188 0v1455h868v-110h-753v-565h626v-110h-626v-560h796v-110 h-911z" />
<glyph unicode="&#xcc;" horiz-adv-x="520" d="M192 1630l-255 283h136l246 -283h-127zM200 0v1455h116v-1455h-116z" />
<glyph unicode="&#xcd;" horiz-adv-x="517" d="M208 1630l245 283h136l-254 -283h-127zM200 0v1455h116v-1455h-116z" />
<glyph unicode="&#xce;" horiz-adv-x="517" d="M305 1914l250 -286h-126l-171 198h-6l-171 -198h-125l244 286h105zM200 0v1455h116v-1455h-116z" />
<glyph unicode="&#xcf;" horiz-adv-x="517" d="M87 1694q-39 0 -65 25.5t-26 63.5t26 64t65 26t65 -26t26 -64t-26 -63.5t-65 -25.5zM425 1696q-37 0 -63.5 25.5t-26.5 61.5q0 37 26.5 63t63.5 26q38 0 63.5 -26t25.5 -63q0 -36 -25.5 -61.5t-63.5 -25.5zM200 0v1455h116v-1455h-116z" />
<glyph unicode="&#xd0;" horiz-adv-x="1479" d="M597 1455q170 0 312 -54t239 -150t150.5 -231t53.5 -295t-52.5 -294.5t-148.5 -229.5t-236.5 -148t-311.5 -53h-415v703h-117v108h117v644h409zM596 110q141 0 260 46t201 127t127.5 194.5t45.5 247.5q0 135 -46 250.5t-127.5 196.5t-199.5 127t-258 46h-296v-534h368 v-108h-368v-593h293z" />
<glyph unicode="&#xd1;" horiz-adv-x="1528" d="M614 1781q-85 0 -126 -119l-77 35q58 181 192 181q32 0 64 -10.5t49.5 -20.5t49.5 -30q8 -5 27 -18t29 -19.5t26 -15t30 -12t28 -3.5q38 0 70 30.5t51 88.5l76 -26q-26 -93 -75.5 -142t-110.5 -49q-13 0 -26 2t-23 4.5t-24 9t-22 10t-23 12.5t-20 12.5t-21.5 14.5 l-19.5 13q-77 52 -124 52zM1224 1455h115v-1455h-117l-916 1251h-3v-1251h-115v1455h113l919 -1257h4v1257z" />
<glyph unicode="&#xd2;" horiz-adv-x="1697" d="M796 1630l-255 283h136l246 -283h-127zM850 -10q-158 0 -294 57.5t-229.5 156.5t-146 235t-52.5 290q0 153 52.5 288t146 234t229.5 156.5t294 57.5q149 0 281 -53.5t229 -148.5t153 -233.5t56 -300.5q0 -163 -56 -302.5t-153 -234.5t-229 -148.5t-281 -53.5zM850 104 q123 0 232.5 46t190 127t127.5 198.5t47 253.5t-47 253t-127.5 197.5t-190 126t-232.5 45.5q-132 0 -245 -49t-190 -133.5t-121 -198.5t-44 -241q0 -129 44 -243.5t121 -198.5t190 -133.5t245 -49.5z" />
<glyph unicode="&#xd3;" horiz-adv-x="1697" d="M806 1630l245 283h136l-254 -283h-127zM850 -10q-158 0 -294 57.5t-229.5 156.5t-146 235t-52.5 290q0 153 52.5 288t146 234t229.5 156.5t294 57.5q149 0 281 -53.5t229 -148.5t153 -233.5t56 -300.5q0 -163 -56 -302.5t-153 -234.5t-229 -148.5t-281 -53.5zM850 104 q123 0 232.5 46t190 127t127.5 198.5t47 253.5t-47 253t-127.5 197.5t-190 126t-232.5 45.5q-132 0 -245 -49t-190 -133.5t-121 -198.5t-44 -241q0 -129 44 -243.5t121 -198.5t190 -133.5t245 -49.5z" />
<glyph unicode="&#xd4;" horiz-adv-x="1697" d="M846 1825l-171 -198h-125l244 286h105l250 -286h-126l-171 198h-6zM850 1465q149 0 281 -53.5t229 -148.5t153 -233.5t56 -300.5q0 -163 -56 -302.5t-153 -234.5t-229 -148.5t-281 -53.5q-158 0 -294 57.5t-229.5 156.5t-146 235t-52.5 290q0 153 52.5 288t146 234 t229.5 156.5t294 57.5zM850 104q123 0 232.5 46t190 127t127.5 198.5t47 253.5t-47 253t-127.5 197.5t-190 126t-232.5 45.5q-132 0 -245 -49t-190 -133.5t-121 -198.5t-44 -241q0 -129 43.5 -243.5t121 -198.5t190.5 -133.5t245 -49.5z" />
<glyph unicode="&#xd5;" horiz-adv-x="1697" d="M1006 1651q-13 0 -26 2t-23 4.5t-24 9t-22 10t-23 12.5t-20 12.5t-21.5 14.5l-19.5 13q-77 52 -124 52q-85 0 -126 -119l-77 35q58 181 192 181q32 0 64 -10.5t49.5 -20.5t49.5 -30q8 -5 27 -18t29 -19.5t26 -15t30 -12t28 -3.5q38 0 70 30.5t51 88.5l76 -26 q-26 -93 -75.5 -142t-110.5 -49zM850 -10q-158 0 -294 57.5t-229.5 156.5t-146 235t-52.5 290q0 153 52.5 288t146 234t229.5 156.5t294 57.5q149 0 281 -53.5t229 -148.5t153 -233.5t56 -300.5q0 -163 -56 -302.5t-153 -234.5t-229 -148.5t-281 -53.5zM850 104 q123 0 232.5 46t190 127t127.5 198.5t47 253.5t-47 253t-127.5 197.5t-190 126t-232.5 45.5q-132 0 -245 -49t-190 -133.5t-121 -198.5t-44 -241q0 -129 44 -243.5t121 -198.5t190 -133.5t245 -49.5z" />
<glyph unicode="&#xd6;" horiz-adv-x="1697" d="M681 1693q-39 0 -65 25.5t-26 63.5t25.5 64t65.5 26q39 0 65 -26t26 -64t-26 -63.5t-65 -25.5zM1019 1695q-37 0 -63.5 25.5t-26.5 61.5q0 37 26.5 63t63.5 26q38 0 63.5 -26t25.5 -63q0 -36 -25.5 -61.5t-63.5 -25.5zM850 -10q-158 0 -294 57.5t-229.5 156.5t-146 235 t-52.5 290q0 153 52.5 288t146 234t229.5 156.5t294 57.5q149 0 281 -53.5t229 -148.5t153 -233.5t56 -300.5q0 -163 -56 -302.5t-153 -234.5t-229 -148.5t-281 -53.5zM850 104q123 0 232.5 46t190 127t127.5 198.5t47 253.5t-47 253t-127.5 197.5t-190 126t-232.5 45.5 q-132 0 -245 -49t-190 -133.5t-121 -198.5t-44 -241q0 -129 43.5 -243.5t121 -198.5t190.5 -133.5t245 -49.5z" />
<glyph unicode="&#xd7;" horiz-adv-x="1031" d="M197 174l-75 74l318 318l-318 317l74 76l317 -318l319 319l76 -75l-319 -320l318 -318l-75 -72l-318 316z" />
<glyph unicode="&#xd8;" horiz-adv-x="1706" d="M1578 1407l-176 -190q80 -96 123.5 -220t43.5 -268q0 -163 -56 -302.5t-153 -234.5t-229 -148.5t-281 -53.5q-261 0 -450 148l-169 -181l-83 76l169 182q-91 100 -140 232t-49 282q0 153 52.5 288t146 234t229.5 156.5t294 57.5q136 0 258 -44t218 -127l172 185zM250 729 q0 -122 39 -231.5t112 -193.5l842 902q-80 70 -180.5 107.5t-212.5 37.5q-132 0 -245 -49t-190 -133.5t-121 -198.5t-44 -241zM1447 729q0 231 -129 398l-837 -901q159 -122 369 -122q123 0 232.5 46t190 127t127.5 198.5t47 253.5z" />
<glyph unicode="&#xd9;" horiz-adv-x="1435" d="M715 1630l-255 283h136l246 -283h-127zM717 -10q-121 0 -222 41t-173.5 116t-112.5 188t-40 251v869h115v-860q0 -225 118.5 -358t314.5 -133t315.5 131.5t119.5 359.5v860h115v-869q0 -137 -39.5 -249t-111 -188t-174 -117.5t-225.5 -41.5z" />
<glyph unicode="&#xda;" horiz-adv-x="1435" d="M618 1630l245 283h136l-254 -283h-127zM717 -10q-121 0 -222 41t-173.5 116t-112.5 188t-40 251v869h115v-860q0 -225 118.5 -358t314.5 -133t315.5 131.5t119.5 359.5v860h115v-869q0 -137 -39.5 -249t-111.5 -188t-174 -117.5t-225 -41.5z" />
<glyph unicode="&#xdb;" horiz-adv-x="1435" d="M715 1825l-171 -198h-125l244 286h105l250 -286h-126l-171 198h-6zM1152 1455h115v-869q0 -137 -39.5 -249t-111.5 -188t-174 -117.5t-225 -41.5q-121 0 -222 41t-173.5 116t-112.5 188t-40 251v869h115v-860q0 -225 118.5 -358t314.5 -133t315.5 131.5t119.5 359.5v860z " />
<glyph unicode="&#xdc;" horiz-adv-x="1435" d="M550 1693q-39 0 -65 25.5t-26 63.5q0 39 25.5 64.5t65.5 25.5q39 0 65 -26t26 -64t-26 -63.5t-65 -25.5zM888 1695q-37 0 -63.5 25.5t-26.5 61.5q0 37 26.5 63t63.5 26q38 0 63.5 -26t25.5 -63q0 -36 -25.5 -61.5t-63.5 -25.5zM717 -10q-121 0 -222 41t-173.5 116 t-112.5 188t-40 251v869h115v-860q0 -225 118.5 -358t314.5 -133t315.5 131.5t119.5 359.5v860h115v-869q0 -137 -39.5 -249t-111.5 -188t-174 -117.5t-225 -41.5z" />
<glyph unicode="&#xdd;" d="M917 1913l-254 -283h-127l245 283h136zM1023 1455h136l-504 -799v-656h-115v656l-500 799h135l419 -675h8z" />
<glyph unicode="&#xde;" horiz-adv-x="1275" d="M188 0v1455h115v-305h416q121 0 212 -32t145.5 -91t81 -136t26.5 -172q0 -110 -36 -193.5t-103 -135.5t-157.5 -78t-203.5 -26h-381v-286h-115zM303 396h382q99 0 173 24.5t118 69.5t65 102.5t21 128.5q0 158 -91.5 238.5t-253.5 80.5h-414v-644z" />
<glyph unicode="&#xdf;" horiz-adv-x="1245" d="M871 883q134 -54 212 -173t78 -260q0 -138 -60 -243.5t-163.5 -161t-233.5 -55.5h-231v102h200q169 0 273.5 98t104.5 259q0 72 -26 138t-74.5 119t-126.5 84.5t-175 31.5h-115v102h119q75 1 132 19.5t88.5 44t51 59.5t25.5 61t6 54q0 116 -85 185t-241 69 q-167 0 -261 -96t-94 -293v-1027h-108v1021q0 126 32.5 221.5t93.5 155.5t145 90t190 30q205 0 321 -93t116 -253q0 -35 -8.5 -71.5t-28.5 -77.5t-60.5 -77.5t-96.5 -59.5v-3z" />
<glyph unicode="&#xe0;" horiz-adv-x="1225" d="M740 1143h-127l-255 283h136zM962 995h108v-995h-103v191h-3q-60 -95 -157 -148t-222 -53q-100 0 -189 36t-155 100t-104.5 158t-38.5 205q0 144 61 261.5t172 186t250 68.5q117 0 216 -54t161 -151h4v195zM592 92q75 0 143 29t119 80t81.5 125.5t30.5 161.5 q0 114 -47.5 208.5t-133 150t-192.5 55.5q-79 0 -149 -29.5t-122.5 -82.5t-83 -131.5t-30.5 -170.5q0 -111 48 -201.5t136 -142.5t200 -52z" />
<glyph unicode="&#xe1;" horiz-adv-x="1225" d="M939 1426l-254 -283h-127l245 283h136zM962 995h108v-995h-103v191h-3q-60 -95 -157 -148t-222 -53q-100 0 -189 36t-155 100t-104.5 158t-38.5 205q0 144 61 261.5t172 186t250 68.5q117 0 216 -54t161 -151h4v195zM592 92q75 0 143 29t119.5 80t81.5 125.5t30 161.5 q0 114 -47.5 208.5t-133 150t-192.5 55.5q-79 0 -149 -29.5t-122.5 -82.5t-83 -131.5t-30.5 -170.5q0 -111 48 -201.5t136 -142.5t200 -52z" />
<glyph unicode="&#xe2;" horiz-adv-x="1225" d="M592 1338l-171 -198h-125l244 286h105l250 -286h-126l-171 198h-6zM962 995h108v-995h-103v191h-3q-60 -95 -157 -148t-222 -53q-100 0 -189 36t-155 100t-104.5 158t-38.5 205q0 144 61 261.5t172 186t250 68.5q117 0 216 -54t161 -151h4v195zM592 92q75 0 143 29 t119 80t81.5 125.5t30.5 161.5q0 114 -47.5 208.5t-133 150t-192.5 55.5q-79 0 -149 -29.5t-122.5 -82.5t-83 -131.5t-30.5 -170.5q0 -111 48 -201.5t136 -142.5t200 -52z" />
<glyph unicode="&#xe3;" horiz-adv-x="1225" d="M449 1294q-85 0 -126 -119l-77 35q58 181 192 181q32 0 64 -10.5t49.5 -20.5t49.5 -30q8 -5 27 -18t29 -19.5t26 -15t30 -12t28 -3.5q38 0 70 30.5t51 88.5l76 -26q-26 -93 -75.5 -142t-110.5 -49q-13 0 -26 2t-23 4.5t-24 9t-22 10t-23 12.5t-20 12.5t-21.5 14.5 l-19.5 13q-77 52 -124 52zM962 995h108v-995h-103v191h-3q-60 -95 -157 -148t-222 -53q-100 0 -189 36t-155 100t-104.5 158t-38.5 205q0 144 61 261.5t172 186t250 68.5q117 0 216 -54t161 -151h4v195zM592 92q75 0 143 29t119 80t81.5 125.5t30.5 161.5q0 114 -47.5 208.5 t-133 150t-192.5 55.5q-79 0 -149 -29.5t-122.5 -82.5t-83 -131.5t-30.5 -170.5q0 -111 48 -201.5t136 -142.5t200 -52z" />
<glyph unicode="&#xe4;" horiz-adv-x="1225" d="M427 1206q-39 0 -65 25.5t-26 63.5t25.5 64t65.5 26q39 0 65 -26t26 -64t-26 -63.5t-65 -25.5zM765 1208q-37 0 -63.5 25.5t-26.5 61.5q0 37 26.5 63t63.5 26q38 0 63.5 -26t25.5 -63q0 -36 -25.5 -61.5t-63.5 -25.5zM962 995h108v-995h-103v191h-3q-60 -95 -157 -148 t-222 -53q-100 0 -189 36t-155 100t-104.5 158t-38.5 205q0 144 61 261.5t172 186t250 68.5q117 0 216 -54t161 -151h4v195zM592 92q75 0 143 29t119 80t81.5 125.5t30.5 161.5q0 114 -47.5 208.5t-133 150t-192.5 55.5q-79 0 -149 -29.5t-122.5 -82.5t-83 -131.5 t-30.5 -170.5q0 -111 48 -201.5t136 -142.5t200 -52z" />
<glyph unicode="&#xe5;" horiz-adv-x="1225" d="M596 1108q-76 0 -131 53.5t-55 128.5t54 129t132 54q76 0 131 -53t55 -130q0 -75 -54 -128.5t-132 -53.5zM596 1384q-39 0 -66.5 -27.5t-27.5 -65.5t27.5 -65t66.5 -27q38 0 66 27t28 65t-28 65.5t-66 27.5zM962 995h108v-995h-103v191h-3q-60 -95 -157 -148t-222 -53 q-100 0 -189 36t-155 100t-104.5 158t-38.5 205q0 144 61 261.5t172 186t250 68.5q117 0 216 -54t161 -151h4v195zM592 92q75 0 143 29t119 80t81.5 125.5t30.5 161.5q0 114 -47.5 208.5t-133 150t-192.5 55.5q-79 0 -149 -29.5t-122.5 -82.5t-83 -131.5t-30.5 -170.5 q0 -111 48 -201.5t136 -142.5t200 -52z" />
<glyph unicode="&#xe6;" horiz-adv-x="1634" d="M1563 518q0 -18 -3 -48h-737q7 -165 100.5 -271.5t231.5 -106.5q84 0 158 40t129 109l77 -65q-67 -87 -160.5 -136.5t-205.5 -49.5q-119 0 -216 66.5t-148 180.5h-2q-36 -111 -139.5 -179t-243.5 -68q-80 0 -143 23t-102.5 63.5t-59.5 92.5t-20 112q0 130 90.5 209 t263.5 79l285 1v33q0 165 -48 232.5t-163 67.5q-145 0 -301 -82l-44 89q75 44 169.5 69.5t181.5 25.5q121 0 189.5 -53.5t94.5 -166.5h3q56 103 149.5 161t210.5 58q115 0 207 -62.5t144 -173.5t52 -250zM1154 902q-128 0 -218 -92t-109 -240h628q-18 150 -100.5 241 t-200.5 91zM412 92q83 0 151.5 33.5t111 99.5t42.5 151q0 14 1 21v74l-276 -1q-110 0 -181.5 -48t-71.5 -138q0 -80 58 -136t165 -56z" />
<glyph unicode="&#xe7;" horiz-adv-x="1059" d="M602 -10l-27 -57l2 -3q73 -4 122.5 -46.5t49.5 -113.5q0 -65 -51 -108t-147 -43q-55 0 -107 13v69q47 -14 96 -14q52 0 88.5 23t36.5 66q0 41 -44.5 70.5t-125.5 29.5l2 52l28 62v3q-191 21 -307.5 158.5t-116.5 344.5q0 148 61.5 263.5t173 180t254.5 64.5 q110 0 213 -43t174 -124l-77 -69q-52 61 -132 97.5t-174 36.5q-170 0 -276.5 -113.5t-106.5 -291.5q0 -180 106 -292.5t276 -112.5q93 0 176 35t137 96l74 -71q-63 -69 -163 -113.5t-215 -48.5z" />
<glyph unicode="&#xe8;" horiz-adv-x="1112" d="M706 1143h-127l-255 283h136zM1016 524q0 -44 -3 -53h-801q8 -169 112 -274t260 -105q98 0 177.5 40t135.5 110l77 -66q-66 -87 -164.5 -136.5t-224.5 -49.5q-102 0 -191.5 37t-154 103t-101.5 161t-37 206q0 110 36.5 205t99 161t148 103.5t182.5 37.5q133 0 236 -62.5 t158 -171.5t55 -246zM576 902q-138 0 -238 -90.5t-122 -240.5h692q-17 150 -106 240.5t-226 90.5z" />
<glyph unicode="&#xe9;" horiz-adv-x="1112" d="M882 1426l-254 -283h-127l245 283h136zM1016 524q0 -44 -3 -53h-801q8 -169 112 -274t260 -105q98 0 177.5 40t135.5 110l77 -66q-66 -87 -164.5 -136.5t-224.5 -49.5q-102 0 -191.5 37t-154 103t-101.5 161t-37 206q0 110 36.5 205t99 161t148 103.5t182.5 37.5 q133 0 236 -62.5t158 -171.5t55 -246zM576 902q-138 0 -238 -91t-122 -240h692q-17 150 -106 240.5t-226 90.5z" />
<glyph unicode="&#xea;" horiz-adv-x="1112" d="M579 1338l-171 -198h-125l244 286h105l250 -286h-126l-171 198h-6zM1016 524q0 -44 -3 -53h-801q8 -169 112 -274t260 -105q98 0 177.5 40t135.5 110l77 -66q-66 -87 -164.5 -136.5t-224.5 -49.5q-102 0 -191.5 37t-154 103t-101.5 161t-37 206q0 110 36.5 205t99 161 t148 103.5t182.5 37.5q133 0 236 -62.5t158 -171.5t55 -246zM576 902q-138 0 -238 -91t-122 -240h692q-17 150 -106 240.5t-226 90.5z" />
<glyph unicode="&#xeb;" horiz-adv-x="1112" d="M414 1206q-39 0 -65 25.5t-26 63.5t25.5 64t65.5 26q39 0 65 -26t26 -64t-26 -63.5t-65 -25.5zM752 1208q-37 0 -63.5 25.5t-26.5 61.5q0 37 26.5 63t63.5 26q38 0 63.5 -26t25.5 -63q0 -36 -25.5 -61.5t-63.5 -25.5zM1016 524q0 -44 -3 -53h-801q8 -169 112 -274 t260 -105q98 0 177.5 40t135.5 110l77 -66q-66 -87 -164.5 -136.5t-224.5 -49.5q-102 0 -191.5 37t-154 103t-101.5 161t-37 206q0 110 36.5 205t99 161t148 103.5t182.5 37.5q133 0 236 -62.5t158 -171.5t55 -246zM576 902q-138 0 -238 -91t-122 -240h692 q-17 150 -106 240.5t-226 90.5z" />
<glyph unicode="&#xec;" horiz-adv-x="467" d="M169 1143l-190 283h127l181 -283h-118zM179 0v995h108v-995h-108z" />
<glyph unicode="&#xed;" horiz-adv-x="467" d="M190 1143l245 283h136l-254 -283h-127zM179 0v995h108v-995h-108z" />
<glyph unicode="&#xee;" horiz-adv-x="467" d="M283 1426l250 -286h-126l-171 198h-6l-171 -198h-125l244 286h105zM179 0v995h108v-995h-108z" />
<glyph unicode="&#xef;" horiz-adv-x="467" d="M65 1206q-39 0 -65 25.5t-26 63.5t25.5 64t65.5 26q39 0 65 -26t26 -64t-26 -63.5t-65 -25.5zM403 1208q-37 0 -63.5 25.5t-26.5 61.5q0 37 26.5 63t63.5 26q38 0 63.5 -26t25.5 -63q0 -36 -25.5 -61.5t-63.5 -25.5zM179 0v995h108v-995h-108z" />
<glyph unicode="&#xf0;" horiz-adv-x="1210" d="M1107 508v-6q0 -107 -37 -201t-102 -162.5t-159.5 -108.5t-205.5 -40q-103 0 -195 37t-159.5 101.5t-107 158t-39.5 201.5q0 147 63.5 264.5t176.5 183.5t255 66q210 0 350 -150l2 2q-110 267 -356 432l-166 -129l-62 71l141 111q-92 50 -198 85l55 90q119 -40 229 -107 l145 114l61 -75l-122 -95q200 -148 315.5 -366.5t115.5 -476.5zM604 92q114 0 204.5 53.5t139.5 145t49 202.5q0 89 -31 165.5t-84 129.5t-125 82.5t-154 29.5q-113 0 -203 -54.5t-139 -147t-49 -205.5q0 -116 52.5 -208.5t141.5 -142.5t198 -50z" />
<glyph unicode="&#xf1;" horiz-adv-x="1146" d="M436 1294q-85 0 -126 -119l-77 35q58 181 192 181q32 0 64 -10.5t49.5 -20.5t49.5 -30q8 -5 27 -18t29 -19.5t26 -15t30 -12t28 -3.5q38 0 70 30.5t51 88.5l76 -26q-26 -93 -75.5 -142t-110.5 -49q-13 0 -26 2t-23 4.5t-24 9t-22 10t-23 12.5t-20 12.5t-21.5 14.5 l-19.5 13q-77 52 -124 52zM664 1005q157 0 246 -100.5t89 -314.5v-590h-108v576q0 76 -13 133.5t-35.5 94t-55 59t-68.5 31.5t-80 9q-165 0 -265 -112t-100 -298v-493h-108v995h108v-194h4q63 97 163.5 150.5t222.5 53.5z" />
<glyph unicode="&#xf2;" horiz-adv-x="1211" d="M545 1143l-255 283h136l246 -283h-127zM606 -10q-112 0 -207.5 40t-160.5 108t-101.5 161t-36.5 197q0 105 36.5 198.5t101.5 162t160.5 108.5t207.5 40q142 0 257 -63.5t181 -180t66 -265.5q0 -147 -66 -263t-181 -179.5t-257 -63.5zM605 92q109 0 199 50.5t143 143.5 t53 210q0 89 -31 165.5t-84 129.5t-125.5 82.5t-154.5 29.5q-116 0 -207 -55t-139.5 -147.5t-48.5 -204.5q0 -111 49 -203t140 -146.5t206 -54.5z" />
<glyph unicode="&#xf3;" horiz-adv-x="1211" d="M540 1143l245 283h136l-254 -283h-127zM606 -10q-112 0 -207.5 40t-160.5 108t-101.5 161t-36.5 197q0 105 36.5 198.5t101.5 162t160.5 108.5t207.5 40q142 0 257 -63.5t181 -180t66 -265.5q0 -147 -66 -263t-181 -179.5t-257 -63.5zM605 92q109 0 199 50.5t143 143.5 t53 210q0 89 -31 165.5t-84 129.5t-125.5 82.5t-154.5 29.5q-116 0 -207 -55t-139.5 -147.5t-48.5 -204.5q0 -111 49 -203t140 -146.5t206 -54.5z" />
<glyph unicode="&#xf4;" horiz-adv-x="1211" d="M602 1338l-171 -198h-125l244 286h105l250 -286h-126l-171 198h-6zM606 1005q142 0 257 -63.5t181 -180t66 -265.5q0 -147 -66 -263t-181 -179.5t-257 -63.5q-112 0 -207.5 40t-160.5 108t-101.5 161t-36.5 197q0 105 36.5 198.5t101.5 162t160.5 108.5t207.5 40zM605 92 q109 0 199 50.5t143 143.5t53 210q0 89 -31 165.5t-84 129.5t-125.5 82.5t-154.5 29.5q-116 0 -207 -55t-139.5 -147.5t-48.5 -204.5q0 -111 49 -203t140 -146.5t206 -54.5z" />
<glyph unicode="&#xf5;" horiz-adv-x="1211" d="M762 1164q-13 0 -26 2t-23 4.5t-24 9t-22 10t-23 12.5t-20 12.5t-21.5 14.5l-19.5 13q-77 52 -124 52q-85 0 -126 -119l-77 35q58 181 192 181q32 0 64 -10.5t49.5 -20.5t49.5 -30q8 -5 27 -18t29 -19.5t26 -15t30 -12t28 -3.5q38 0 70 30.5t51 88.5l76 -26 q-26 -93 -75.5 -142t-110.5 -49zM606 -10q-112 0 -207.5 40t-160.5 108t-101.5 161t-36.5 197q0 105 36.5 198.5t101.5 162t160.5 108.5t207.5 40q142 0 257 -63.5t181 -180t66 -265.5q0 -147 -66 -263t-181 -179.5t-257 -63.5zM605 92q109 0 199 50.5t143 143.5t53 210 q0 89 -31 165.5t-84 129t-125.5 82.5t-154.5 30q-116 0 -207 -55t-139.5 -147.5t-48.5 -204.5q0 -111 49 -203t140 -146.5t206 -54.5z" />
<glyph unicode="&#xf6;" horiz-adv-x="1211" d="M437 1206q-39 0 -65 25.5t-26 63.5t25.5 64t65.5 26q39 0 65 -26t26 -64t-26 -63.5t-65 -25.5zM775 1208q-37 0 -63.5 25.5t-26.5 61.5q0 37 26.5 63t63.5 26q38 0 63.5 -26t25.5 -63q0 -36 -25.5 -61.5t-63.5 -25.5zM606 -10q-112 0 -207.5 40t-160.5 108t-101.5 161 t-36.5 197q0 105 36.5 198.5t101.5 162t160.5 108.5t207.5 40q142 0 257 -63.5t181 -180t66 -265.5q0 -147 -66 -263t-181 -179.5t-257 -63.5zM605 92q109 0 199 50.5t143 143.5t53 210q0 89 -31 165.5t-84 129.5t-125.5 82.5t-154.5 29.5q-116 0 -207 -55t-139.5 -147.5 t-48.5 -204.5q0 -111 49 -203t140 -146.5t206 -54.5z" />
<glyph unicode="&#xf7;" d="M599 867q-40 0 -66.5 26.5t-26.5 64.5q0 39 26.5 66t66.5 27q39 0 66 -27t27 -66q0 -38 -27 -64.5t-66 -26.5zM138 511v110h952v-110h-952zM599 65q-40 0 -66.5 26.5t-26.5 64.5q0 39 26.5 66t66.5 27q39 0 66 -27t27 -66q0 -38 -27 -64.5t-66 -26.5z" />
<glyph unicode="&#xf8;" horiz-adv-x="1218" d="M1127 958l-126 -134q109 -134 109 -328q0 -147 -66 -263t-181 -179.5t-257 -63.5q-174 0 -304 93l-115 -121l-70 63l114 121q-63 69 -97 158.5t-34 191.5q0 105 36.5 198.5t101.5 162t160.5 108.5t207.5 40q191 0 328 -113l122 129zM210 496q0 -158 96 -271l554 588 q-107 90 -255 90q-116 0 -207 -55t-139.5 -147.5t-48.5 -204.5zM1000 496q0 141 -75 248l-549 -582q99 -70 229 -70q109 0 199 50.5t143 143.5t53 210z" />
<glyph unicode="&#xf9;" horiz-adv-x="1120" d="M695 1143h-127l-255 283h136zM857 995h108v-995h-108v184h-4q-61 -92 -153 -143t-193 -51q-173 0 -268 104.5t-95 304.5v596h108v-563q0 -93 18 -159t54 -105t84.5 -57t113.5 -18q66 0 127 29.5t107 81.5t73.5 130t27.5 169v492z" />
<glyph unicode="&#xfa;" horiz-adv-x="1120" d="M881 1426l-254 -283h-127l245 283h136zM857 995h108v-995h-108v184h-4q-61 -92 -153 -143t-193 -51q-173 0 -268 104.5t-95 304.5v596h108v-563q0 -93 18 -159t54 -105t84.5 -57t113.5 -18q66 0 127 29.5t107 81.5t73.5 130t27.5 169v492z" />
<glyph unicode="&#xfb;" horiz-adv-x="1120" d="M540 1338l-171 -198h-125l244 286h105l250 -286h-126l-171 198h-6zM857 995h108v-995h-108v184h-4q-61 -92 -153 -143t-193 -51q-173 0 -268 104.5t-95 304.5v596h108v-563q0 -93 18 -159t54 -105t84.5 -57t113.5 -18q66 0 127 29.5t107 81.5t73.5 130t27.5 169v492z" />
<glyph unicode="&#xfc;" horiz-adv-x="1120" d="M375 1206q-39 0 -65 25.5t-26 63.5t25.5 64t65.5 26q39 0 65 -26t26 -64t-26 -63.5t-65 -25.5zM713 1208q-37 0 -63.5 25.5t-26.5 61.5q0 37 26.5 63t63.5 26q38 0 63.5 -26t25.5 -63q0 -36 -25.5 -61.5t-63.5 -25.5zM857 995h108v-995h-108v184h-4q-61 -92 -153 -143 t-193 -51q-173 0 -268 104.5t-95 304.5v596h108v-563q0 -93 18 -159t54 -105t84.5 -57t113.5 -18q66 0 127 29.5t107 81.5t73.5 130t27.5 169v492z" />
<glyph unicode="&#xfd;" horiz-adv-x="1070" d="M817 1426l-254 -283h-127l245 283h136zM892 995h119l-579 -1400h-117l176 432l-434 968h118l369 -836h5z" />
<glyph unicode="&#xfe;" horiz-adv-x="1241" d="M656 1005q139 0 250 -68.5t172 -186t61 -261.5q0 -111 -38.5 -205t-104.5 -158t-155 -100t-189 -36q-123 0 -218.5 51t-155.5 143h-4v-589h-108v1913h108v-710h4q62 98 161.5 152.5t216.5 54.5zM645 92q112 0 200 52t136 142.5t48 201.5q0 92 -30.5 170.5t-83 131.5 t-123 82.5t-148.5 29.5q-107 0 -192.5 -55.5t-133 -150t-47.5 -208.5q0 -87 30 -161.5t81.5 -125.5t119.5 -80t143 -29z" />
<glyph unicode="&#xff;" horiz-adv-x="1070" d="M367 1206q-39 0 -65 25.5t-26 63.5t25.5 64t65.5 26q39 0 65 -26t26 -64t-26 -63.5t-65 -25.5zM705 1208q-37 0 -63.5 25.5t-26.5 61.5q0 37 26.5 63t63.5 26q38 0 63.5 -26t25.5 -63q0 -36 -25.5 -61.5t-63.5 -25.5zM892 995h119l-579 -1400h-117l176 432l-434 968h118 l369 -836h5z" />
<glyph unicode="&#x152;" horiz-adv-x="1946" d="M1052 110h793v-110h-986q-160 0 -297.5 58t-232 156.5t-148 232.5t-53.5 284t53.5 283t148 231t232 154.5t297.5 55.5h945v-110h-752v-566h631v-110h-631v-559zM859 111h78v1234h-78q-126 1 -238 -44.5t-194 -125.5t-129.5 -195.5t-47.5 -248.5q0 -134 47.5 -250 t129.5 -197t194 -127t238 -46z" />
<glyph unicode="&#x153;" horiz-adv-x="1687" d="M1615 518q0 -35 -3 -48l-696 1q3 -84 22.5 -152.5t56 -119.5t94.5 -79t132 -28q83 0 155 40.5t119 108.5l78 -65q-59 -85 -154 -135.5t-199 -50.5q-138 0 -227.5 65t-135.5 176h-4q-53 -113 -146 -177t-208 -64q-124 0 -220.5 67t-148 181.5t-51.5 257.5 q0 142 54.5 258.5t152 183t217.5 66.5q111 0 204.5 -65.5t146.5 -180.5h4q49 115 141 180.5t217 65.5q113 0 204 -62.5t143 -174t52 -249.5zM499 92q130 0 218.5 113.5t88.5 290.5q0 88 -24.5 164.5t-65.5 129t-96.5 82.5t-116.5 30q-89 0 -160.5 -53t-112 -146t-40.5 -207 t38.5 -206t109.5 -145t161 -53zM1213 902q-126 0 -202 -89.5t-91 -241.5h588q-17 151 -95.5 241t-199.5 90z" />
<glyph unicode="&#x178;" d="M433 1693q-39 0 -65 25.5t-26 63.5q0 39 25.5 64.5t65.5 25.5q39 0 65 -26t26 -64t-26 -63.5t-65 -25.5zM771 1695q-37 0 -63.5 25.5t-26.5 61.5q0 37 26.5 63t63.5 26q38 0 63.5 -26t25.5 -63q0 -36 -25.5 -61.5t-63.5 -25.5zM1023 1455h136l-504 -799v-656h-115v656 l-500 799h135l419 -675h8z" />
<glyph unicode="&#x2c6;" horiz-adv-x="1039" d="M693 1112l-171 198h-6l-171 -198h-125l244 286h105l250 -286h-126z" />
<glyph unicode="&#x2dc;" horiz-adv-x="1044" d="M682 1136q-13 0 -26 2t-23 4.5t-24 9t-22 10t-23 12.5t-20 12.5t-21.5 14.5l-19.5 13q-77 52 -124 52q-85 0 -126 -119l-77 35q58 181 192 181q32 0 64 -10.5t49.5 -20.5t49.5 -30q8 -5 27 -18t29 -19.5t26 -15t30 -12t28 -3.5q38 0 70 30.5t51 88.5l76 -26 q-26 -93 -75.5 -142t-110.5 -49z" />
<glyph unicode="&#x2000;" horiz-adv-x="980" />
<glyph unicode="&#x2001;" horiz-adv-x="1960" />
<glyph unicode="&#x2002;" horiz-adv-x="980" />
<glyph unicode="&#x2003;" horiz-adv-x="1960" />
<glyph unicode="&#x2004;" horiz-adv-x="653" />
<glyph unicode="&#x2005;" horiz-adv-x="490" />
<glyph unicode="&#x2006;" horiz-adv-x="326" />
<glyph unicode="&#x2007;" horiz-adv-x="326" />
<glyph unicode="&#x2008;" horiz-adv-x="245" />
<glyph unicode="&#x2009;" horiz-adv-x="392" />
<glyph unicode="&#x200a;" horiz-adv-x="108" />
<glyph unicode="&#x2010;" horiz-adv-x="850" d="M125 578v110h600v-110h-600z" />
<glyph unicode="&#x2011;" horiz-adv-x="850" d="M125 578v110h600v-110h-600z" />
<glyph unicode="&#x2012;" horiz-adv-x="850" d="M125 578v110h600v-110h-600z" />
<glyph unicode="&#x2013;" horiz-adv-x="1206" d="M125 556v104h956v-104h-956z" />
<glyph unicode="&#x2014;" horiz-adv-x="2162" d="M125 556v104h1912v-104h-1912z" />
<glyph unicode="&#x2018;" horiz-adv-x="377" d="M290 1452l-70 -471h-127l99 471h98z" />
<glyph unicode="&#x2019;" horiz-adv-x="377" d="M87 984l70 471h127l-99 -471h-98z" />
<glyph unicode="&#x201a;" horiz-adv-x="406" d="M73 -265l70 471h128l-114 -471h-84z" />
<glyph unicode="&#x201c;" horiz-adv-x="615" d="M290 1453l-68 -471h-129l98 471h99zM528 1453l-70 -471h-127l99 471h98z" />
<glyph unicode="&#x201d;" horiz-adv-x="615" d="M87 984l70 471h127l-99 -471h-98zM325 984l68 471h129l-98 -471h-99z" />
<glyph unicode="&#x201e;" horiz-adv-x="643" d="M73 -153l70 471h127l-99 -471h-98zM311 -153l68 471h129l-98 -471h-99z" />
<glyph unicode="&#x2022;" horiz-adv-x="828" d="M413 455q-81 0 -137 55.5t-56 136.5q0 80 56.5 136t137 56t137.5 -56t57 -136q0 -81 -57 -136.5t-138 -55.5z" />
<glyph unicode="&#x2026;" horiz-adv-x="2048" d="M341 -10q-39 0 -65.5 25.5t-26.5 63.5q0 39 26.5 65t65.5 26q38 0 64.5 -26t26.5 -65q0 -37 -26.5 -63t-64.5 -26zM1024 -10q-39 0 -65.5 25.5t-26.5 63.5q0 39 26.5 65t65.5 26q38 0 64.5 -26t26.5 -65q0 -37 -26.5 -63t-64.5 -26zM1707 -10q-39 0 -65.5 25.5 t-26.5 63.5q0 39 26.5 65t65.5 26q38 0 64.5 -26t26.5 -65q0 -37 -26.5 -63t-64.5 -26z" />
<glyph unicode="&#x202f;" horiz-adv-x="392" />
<glyph unicode="&#x2039;" horiz-adv-x="574" d="M491 40h-115l-262 461l262 460h116l-260 -460z" />
<glyph unicode="&#x203a;" horiz-adv-x="566" d="M100 40l259 461l-260 460h116l262 -460l-262 -461h-115z" />
<glyph unicode="&#x205f;" horiz-adv-x="490" />
<glyph unicode="&#x20ac;" horiz-adv-x="1219" d="M1089 201l64 -88q-173 -122 -393 -122q-100 0 -195.5 34t-177 97t-142 162.5t-85.5 222.5h-133v98h118q-3 39 -3 81q0 46 4 82h-119v98h134q24 112 76.5 207t128.5 164.5t177.5 108.5t216.5 39q216 0 384 -119l-67 -86q-140 99 -317 99q-176 0 -304.5 -114t-174.5 -299 h621v-98h-638q-4 -36 -4 -82t4 -81h638v-98h-621q24 -96 73 -174.5t113.5 -129.5t139.5 -78t153 -27q190 0 329 103z" />
<glyph unicode="&#x2122;" horiz-adv-x="1394" d="M247 792v586h-197v77h480v-77h-199v-586h-84zM634 792v663h87l240 -426l240 426h86v-663h-83v507l-214 -372h-58l-216 372v-507h-82z" />
<glyph unicode="&#x25fc;" horiz-adv-x="995" d="M0 995h995v-995h-995v995z" />
</font>
</defs>
</svg>
